<?xml version="1.0" encoding="UTF-8"?>
<svg width="390px" height="118px" viewBox="0 0 390 118" version="1.1" xmlns="http://www.w3.org/2000/svg" xmlns:xlink="http://www.w3.org/1999/xlink">
    <!-- Generator: Sketch 48.2 (47327) - http://www.bohemiancoding.com/sketch -->
    <title>Logo/Color</title>
    <desc>Created with Sketch.</desc>
    <defs>
        <polygon id="path-1" points="0 117.333 389.278 117.333 389.278 0 0 0"></polygon>
    </defs>
    <g id="Symbols" stroke="none" stroke-width="1" fill="none" fill-rule="evenodd">
        <g id="Logo/Color">
            <g id="Page-1">
                <path d="M92.1134,28.8044 C100.6564,28.8044 107.4174,31.5424 112.3954,37.0164 C117.3714,42.4914 119.8604,50.0604 119.8604,59.7254 L119.8604,62.0264 L78.7374,62.0264 C79.3604,67.2114 81.2974,71.2024 84.5534,74.0024 C87.8094,76.8014 92.2784,78.2004 97.9614,78.2004 C101.6104,78.2004 105.1254,77.5694 108.5064,76.3044 C111.8854,75.0384 115.3814,73.1214 118.9894,70.5494 L118.9894,81.9354 C112.1864,86.7454 103.9334,89.1524 94.2284,89.1524 C85.0614,89.1524 77.5754,86.3934 71.7694,80.8764 C65.9624,75.3624 63.0594,68.0204 63.0594,58.8534 C63.0594,50.0184 65.7444,42.8024 71.1164,37.2034 C76.4874,31.6044 83.4864,28.8044 92.1134,28.8044 Z M105.4884,52.7574 C105.0734,48.5264 103.7874,45.2194 101.6324,42.8334 C99.4754,40.4484 96.5094,39.2564 92.7354,39.2564 C88.8784,39.2564 85.7774,40.3974 83.4354,42.6794 C81.0914,44.9594 79.6094,48.3194 78.9874,52.7574 L105.4884,52.7574 Z" id="Fill-1" fill="#404042"></path>
                <path d="M145.2452,14.4958 L146.4892,14.4958 L146.4892,29.9248 L166.3972,29.9248 L166.3972,41.4968 L146.4892,41.4968 L146.4892,68.3098 C146.4892,70.9228 147.2772,73.0378 148.8542,74.6558 C150.4302,76.2728 152.5862,77.0818 155.3242,77.0818 C158.8912,77.0818 162.9972,75.7968 167.6422,73.2248 L167.6422,85.4808 C162.1252,87.9278 156.9412,89.1518 152.0892,89.1518 C145.5352,89.1518 140.4242,87.3688 136.7532,83.8008 C133.0832,80.2338 131.2472,75.4018 131.2472,69.3058 L131.2472,41.4968 L122.1642,41.4968 L122.1642,39.0068 L145.2452,14.4958 Z" id="Fill-3" fill="#404042"></path>
                <path d="M205.6432,0.0002 C207.4262,0.0002 209.2612,0.1652 211.1492,0.4982 C213.0362,0.8312 214.5612,1.2662 215.7222,1.8042 L215.7222,14.2462 C213.6062,13.6672 211.3052,13.3762 208.8162,13.3762 C205.1242,13.3762 202.3772,14.3302 200.5732,16.2382 C198.7692,18.1452 197.8672,21.3192 197.8672,25.7552 L197.8672,29.9252 L207.8212,29.9252 L207.8212,41.4962 L197.8672,41.4962 L197.8672,88.0312 L182.5622,88.0312 L182.5622,41.4962 L174.2882,41.4962 L174.2882,29.9252 L182.5622,29.9252 L182.5622,25.5702 C182.5622,17.7302 184.6672,11.5092 188.8772,6.9062 C193.0862,2.3022 198.6752,0.0002 205.6432,0.0002" id="Fill-5" fill="#E62233"></path>
                <path d="M228.3258,3.0485 C230.6898,3.0485 232.7218,3.8995 234.4228,5.5995 C236.1228,7.3005 236.9728,9.3325 236.9728,11.6955 C236.9728,13.9775 236.1338,15.9995 234.4538,17.7615 C232.7738,19.5245 230.7308,20.4055 228.3258,20.4055 C226.0028,20.4055 223.9808,19.5245 222.2608,17.7615 C220.5388,15.9995 219.6788,13.9775 219.6788,11.6955 C219.6788,9.2905 220.5498,7.2475 222.2908,5.5675 C224.0328,3.8885 226.0448,3.0485 228.3258,3.0485 Z M220.6728,88.0305 L235.9778,88.0305 L235.9778,29.9245 L220.6728,29.9245 L220.6728,88.0305 Z" id="Fill-7" fill="#E62233"></path>
                <path d="M280.5416,28.8044 C282.5736,28.8044 284.5746,29.2614 286.5456,30.1734 C288.5156,31.0864 290.8076,32.6204 293.4196,34.7774 L287.9446,48.1534 C283.5066,44.8364 279.9396,43.1764 277.2446,43.1764 C274.8806,43.1764 272.5476,44.0574 270.2446,45.8204 C267.9436,47.5834 266.0976,49.9164 264.7086,52.8184 C263.3176,55.7224 262.6246,58.6264 262.6246,61.5284 L262.6246,88.0324 L247.3196,88.0324 L247.3196,29.9254 L262.6246,29.9254 L262.6246,44.7314 L262.8736,44.7314 C265.6506,39.1324 268.4506,35.0784 271.2716,32.5684 C274.0926,30.0604 277.1826,28.8044 280.5416,28.8044" id="Fill-9" fill="#E62233"></path>
                <path d="M318.7887,28.8044 C321.9817,28.8044 324.9877,29.1684 327.8097,29.8934 C330.6297,30.6184 333.6157,31.7704 336.7677,33.3464 L336.7677,45.6024 C333.8647,43.7354 330.7547,42.2334 327.4357,41.0924 C324.1177,39.9524 321.1527,39.3804 318.5397,39.3804 C316.3407,39.3804 314.6197,39.7954 313.3757,40.6264 C312.1317,41.4544 311.5097,42.6384 311.5097,44.1704 C311.5097,45.0424 312.0277,45.9134 313.0647,46.7844 C314.1017,47.6554 316.9417,49.2524 321.5877,51.5744 C328.2247,54.9344 332.8797,58.0344 335.5547,60.8764 C338.2297,63.7174 339.5667,67.1274 339.5667,71.1104 C339.5667,76.7084 337.6167,81.1164 333.7197,84.3284 C329.8207,87.5444 324.5527,89.1524 317.9177,89.1524 C313.7687,89.1524 309.9017,88.6954 306.3137,87.7834 C302.7267,86.8704 299.7507,85.7714 297.3877,84.4864 L297.3877,71.7324 C304.8527,75.8794 311.1357,77.9524 316.2377,77.9524 C318.8507,77.9524 320.9667,77.4874 322.5837,76.5534 C324.2007,75.6194 325.0097,74.3864 325.0097,72.8514 C325.0097,71.9404 324.7197,71.1104 324.1387,70.3634 C323.5577,69.6164 322.6857,68.8494 321.5257,68.0614 C320.3637,67.2744 316.7347,65.3854 310.6397,62.3994 C305.9507,60.1604 302.4887,57.7244 300.2497,55.0894 C298.0097,52.4564 296.8897,49.3344 296.8897,45.7274 C296.8897,40.5834 298.8997,36.4774 302.9247,33.4084 C306.9457,30.3404 312.2347,28.8044 318.7887,28.8044" id="Fill-11" fill="#E62233"></path>
                <path d="M366.0397,14.4958 L367.2837,14.4958 L367.2837,29.9248 L387.1917,29.9248 L387.1917,41.4968 L367.2837,41.4968 L367.2837,68.3098 C367.2837,70.9228 368.0717,73.0378 369.6487,74.6558 C371.2247,76.2728 373.3817,77.0818 376.1187,77.0818 C379.6857,77.0818 383.7917,75.7968 388.4367,73.2248 L388.4367,85.4808 C382.9207,87.9278 377.7357,89.1518 372.8837,89.1518 C366.3297,89.1518 361.2187,87.3688 357.5487,83.8008 C353.8767,80.2338 352.0427,75.4018 352.0427,69.3058 L352.0427,41.4968 L342.9597,41.4968 L342.9597,39.0068 L366.0397,14.4958 Z" id="Fill-13" fill="#E62233"></path>
                <path d="M188.1774,102.8854 L188.1774,96.1984 L191.3404,96.1984 C194.1824,96.1984 195.6044,97.3044 195.6044,99.5164 C195.6044,100.6274 195.2574,101.4674 194.5644,102.0334 C193.8704,102.6024 192.9054,102.8854 191.6674,102.8854 L188.1774,102.8854 Z M192.8194,92.5714 L183.5354,92.5714 L183.5354,116.5864 L188.1774,116.5864 L188.1774,106.5124 L192.6474,106.5124 C194.9734,106.5124 196.8484,105.8704 198.2694,104.5864 C199.6904,103.3044 200.4004,101.6244 200.4004,99.5504 C200.4004,97.4994 199.6984,95.8234 198.2954,94.5224 C196.8904,93.2214 195.0654,92.5714 192.8194,92.5714 Z" id="Fill-15" fill="#6C6E70"></path>
                <path d="M204.1295,106.8405 C204.3025,105.6135 204.7105,104.6855 205.3585,104.0545 C206.0065,103.4245 206.8625,103.1095 207.9295,103.1095 C208.9725,103.1095 209.7915,103.4385 210.3875,104.0965 C210.9835,104.7565 211.3385,105.6705 211.4535,106.8405 L204.1295,106.8405 Z M207.7565,100.2205 C205.3725,100.2205 203.4385,100.9945 201.9545,102.5425 C200.4705,104.0895 199.7285,106.0825 199.7285,108.5255 C199.7285,111.0585 200.5305,113.0865 202.1355,114.6115 C203.7395,116.1355 205.8095,116.8965 208.3415,116.8965 C211.0245,116.8965 213.3045,116.2325 215.1845,114.9025 L215.1845,111.7565 C214.1875,112.4675 213.2215,112.9965 212.2875,113.3465 C211.3535,113.6965 210.3825,113.8705 209.3735,113.8705 C207.8035,113.8705 206.5675,113.4845 205.6675,112.7105 C204.7685,111.9365 204.2335,110.8335 204.0615,109.4015 L215.4245,109.4015 L215.4245,108.7655 C215.4245,106.0945 214.7365,104.0035 213.3615,102.4895 C211.9855,100.9775 210.1175,100.2205 207.7565,100.2205 Z" id="Fill-17" fill="#6C6E70"></path>
                <path d="M223.8043,96.2663 L223.4603,96.2663 L217.0823,103.0393 L217.0823,103.7283 L219.5923,103.7283 L219.5923,111.4123 C219.5923,113.0983 220.0993,114.4323 221.1143,115.4173 C222.1283,116.4043 223.5403,116.8963 225.3513,116.8963 C226.6933,116.8963 228.1253,116.5583 229.6503,115.8823 L229.6503,112.4953 C228.3663,113.2063 227.2313,113.5613 226.2453,113.5613 C225.4903,113.5613 224.8933,113.3383 224.4573,112.8913 C224.0223,112.4443 223.8043,111.8603 223.8043,111.1383 L223.8043,103.7283 L229.3063,103.7283 L229.3063,100.5303 L223.8043,100.5303 L223.8043,96.2663 Z" id="Fill-19" fill="#6C6E70"></path>
                <mask id="mask-2" fill="white">
                    <use xlink:href="#path-1"></use>
                </mask>
                <g id="Clip-22"></g>
                <polygon id="Fill-21" fill="#6C6E70" mask="url(#mask-2)" points="243.108 116.588 247.75 116.588 247.75 92.571 243.108 92.571"></polygon>
                <path d="M262.2321,100.2204 C261.2691,100.2204 260.3781,100.4174 259.5591,100.8144 C258.7391,101.2084 257.9401,101.8664 257.1611,102.7834 L257.1611,100.5304 L252.9311,100.5304 L252.9311,116.5874 L257.1611,116.5874 L257.1611,105.9114 C257.8481,105.0184 258.4781,104.3784 259.0511,103.9934 C259.6251,103.6104 260.2381,103.4184 260.8911,103.4184 C261.7511,103.4184 262.4291,103.7224 262.9281,104.3294 C263.4261,104.9384 263.6761,105.7624 263.6761,106.8054 L263.6761,116.5874 L267.8881,116.5874 L267.8881,106.3744 C267.8881,104.5294 267.3751,103.0434 266.3491,101.9144 C265.3231,100.7854 263.9521,100.2204 262.2321,100.2204" id="Fill-23" fill="#6C6E70" mask="url(#mask-2)"></path>
                <path d="M277.5055,100.2204 C275.6945,100.2204 274.2345,100.6444 273.1215,101.4924 C272.0105,102.3414 271.4545,103.4754 271.4545,104.8964 C271.4545,105.8944 271.7645,106.7574 272.3835,107.4844 C273.0015,108.2124 273.9585,108.8854 275.2535,109.5044 C276.9385,110.3294 277.9415,110.8514 278.2625,111.0694 C278.5835,111.2864 278.8235,111.4984 278.9845,111.7044 C279.1455,111.9104 279.2255,112.1394 279.2255,112.3924 C279.2255,112.8174 279.0015,113.1584 278.5545,113.4144 C278.1085,113.6734 277.5235,113.8024 276.8015,113.8024 C275.3915,113.8024 273.6545,113.2294 271.5925,112.0824 L271.5925,115.6084 C272.2445,115.9634 273.0675,116.2664 274.0585,116.5184 C275.0505,116.7704 276.1185,116.8964 277.2655,116.8964 C279.0995,116.8964 280.5555,116.4524 281.6315,115.5644 C282.7085,114.6764 283.2475,113.4574 283.2475,111.9104 C283.2475,110.8104 282.8785,109.8674 282.1385,109.0814 C281.4005,108.2984 280.1135,107.4414 278.2795,106.5124 C276.9955,105.8704 276.2115,105.4304 275.9245,105.1894 C275.6385,104.9494 275.4945,104.7074 275.4945,104.4674 C275.4945,104.0434 275.6665,103.7164 276.0105,103.4874 C276.3545,103.2574 276.8295,103.1434 277.4375,103.1434 C278.1585,103.1434 278.9785,103.3004 279.8965,103.6164 C280.8125,103.9314 281.6715,104.3464 282.4755,104.8624 L282.4755,101.4764 C281.6035,101.0404 280.7775,100.7224 279.9985,100.5204 C279.2195,100.3214 278.3885,100.2204 277.5055,100.2204" id="Fill-24" fill="#6C6E70" mask="url(#mask-2)"></path>
                <path d="M301.6158,100.53 L297.3868,100.53 L297.3868,111.173 C296.9858,111.964 296.4588,112.576 295.8048,113.011 C295.1518,113.446 294.4698,113.665 293.7608,113.665 C292.8998,113.665 292.2098,113.393 291.6878,112.848 C291.1668,112.304 290.9058,111.509 290.9058,110.467 L290.9058,100.53 L286.6938,100.53 L286.6938,110.81 C286.6938,112.622 287.2208,114.089 288.2748,115.212 C289.3298,116.335 290.7168,116.897 292.4358,116.897 C294.2128,116.897 295.8628,116.066 297.3868,114.405 L297.3868,116.587 L301.6158,116.587 L301.6158,100.53 Z" id="Fill-25" fill="#6C6E70" mask="url(#mask-2)"></path>
                <path d="M315.3424,100.2204 C314.4134,100.2204 313.5594,100.5684 312.7804,101.2604 C312.0014,101.9544 311.2274,103.0744 310.4594,104.6214 L310.3914,104.6214 L310.3914,100.5304 L306.1614,100.5304 L306.1614,116.5874 L310.3914,116.5874 L310.3914,109.2634 C310.3914,108.4614 310.5824,107.6584 310.9664,106.8564 C311.3504,106.0544 311.8614,105.4094 312.4964,104.9224 C313.1334,104.4364 313.7784,104.1934 314.4304,104.1934 C315.1754,104.1934 316.1614,104.6514 317.3884,105.5684 L318.9014,101.8704 C318.1784,101.2754 317.5454,100.8514 317.0004,100.5984 C316.4564,100.3464 315.9044,100.2204 315.3424,100.2204" id="Fill-26" fill="#6C6E70" mask="url(#mask-2)"></path>
                <path d="M326.3356,114.2321 C325.7846,114.2321 325.3226,114.0541 324.9506,113.6991 C324.5786,113.3431 324.3926,112.8741 324.3926,112.2901 C324.3926,111.7611 324.5496,111.3151 324.8656,110.9481 C325.1806,110.5811 325.6736,110.2211 326.3446,109.8661 C327.0146,109.5101 327.9396,109.1311 329.1196,108.7311 L329.1196,112.9601 C328.1916,113.8081 327.2636,114.2321 326.3356,114.2321 M326.9716,100.2201 C324.5646,100.2201 322.4836,100.9151 320.7306,102.3011 L320.7306,106.1001 C321.5226,105.2291 322.3976,104.5711 323.3606,104.1241 C324.3236,103.6761 325.2926,103.4521 326.2666,103.4521 C328.1686,103.4521 329.1196,104.2381 329.1196,105.8081 L329.1196,106.5471 L325.6986,107.5451 C323.6366,108.1401 322.1916,108.8391 321.3666,109.6411 C320.5416,110.4441 320.1296,111.5391 320.1296,112.9261 C320.1296,114.0151 320.5436,114.9481 321.3756,115.7271 C322.2056,116.5061 323.2006,116.8961 324.3576,116.8961 C325.9846,116.8961 327.6066,116.3231 329.2236,115.1771 C329.3836,115.8191 329.6676,116.2661 330.0736,116.5181 C330.4816,116.7701 331.0636,116.8961 331.8186,116.8961 C333.0456,116.8961 334.3986,116.4451 335.8766,115.5391 L335.8766,113.0981 C335.6246,113.3271 335.3116,113.5301 334.9396,113.7081 C334.5666,113.8851 334.2776,113.9731 334.0706,113.9731 C333.5776,113.9731 333.3326,113.6701 333.3326,113.0631 L333.3326,105.2071 C333.3326,103.6361 332.7876,102.4121 331.6986,101.5371 C330.6096,100.6591 329.0336,100.2201 326.9716,100.2201" id="Fill-27" fill="#6C6E70" mask="url(#mask-2)"></path>
                <path d="M347.8151,100.2204 C346.8521,100.2204 345.9611,100.4174 345.1421,100.8144 C344.3221,101.2084 343.5231,101.8664 342.7441,102.7834 L342.7441,100.5304 L338.5141,100.5304 L338.5141,116.5874 L342.7441,116.5874 L342.7441,105.9114 C343.4311,105.0184 344.0621,104.3784 344.6341,103.9934 C345.2081,103.6104 345.8211,103.4184 346.4741,103.4184 C347.3341,103.4184 348.0121,103.7224 348.5111,104.3294 C349.0091,104.9384 349.2591,105.7624 349.2591,106.8054 L349.2591,116.5874 L353.4711,116.5874 L353.4711,106.3744 C353.4711,104.5294 352.9581,103.0434 351.9321,101.9144 C350.9071,100.7854 349.5341,100.2204 347.8151,100.2204" id="Fill-28" fill="#6C6E70" mask="url(#mask-2)"></path>
                <path d="M365.5817,100.2204 C363.0597,100.2204 361.0057,100.9994 359.4187,102.5584 C357.8297,104.1164 357.0367,106.1754 357.0367,108.7314 C357.0367,111.1964 357.8477,113.1714 359.4687,114.6604 C361.0917,116.1524 363.2027,116.8964 365.8047,116.8964 C367.5687,116.8964 369.2827,116.5594 370.9447,115.8824 L370.9447,112.4604 C369.1567,113.2174 367.6887,113.5954 366.5437,113.5954 C365.0087,113.5954 363.7787,113.1364 362.8567,112.2204 C361.9337,111.3034 361.4727,110.0944 361.4727,108.5934 C361.4727,107.0584 361.9307,105.8404 362.8477,104.9404 C363.7647,104.0404 364.9447,103.5904 366.3897,103.5904 C367.7297,103.5904 369.1507,104.0254 370.6527,104.8964 L370.6527,101.3044 C369.1397,100.5814 367.4487,100.2204 365.5817,100.2204" id="Fill-29" fill="#6C6E70" mask="url(#mask-2)"></path>
                <path d="M377.984,106.8405 C378.156,105.6135 378.565,104.6855 379.213,104.0545 C379.86,103.4245 380.717,103.1095 381.783,103.1095 C382.826,103.1095 383.645,103.4385 384.242,104.0965 C384.838,104.7565 385.193,105.6705 385.307,106.8405 L377.984,106.8405 Z M381.611,100.2205 C379.227,100.2205 377.293,100.9945 375.808,102.5425 C374.325,104.0895 373.583,106.0825 373.583,108.5255 C373.583,111.0585 374.384,113.0865 375.99,114.6115 C377.594,116.1355 379.663,116.8965 382.195,116.8965 C384.878,116.8965 387.159,116.2325 389.038,114.9025 L389.038,111.7565 C388.041,112.4675 387.075,112.9965 386.141,113.3465 C385.207,113.6965 384.236,113.8705 383.227,113.8705 C381.657,113.8705 380.422,113.4845 379.522,112.7105 C378.623,111.9365 378.087,110.8335 377.916,109.4015 L389.278,109.4015 L389.278,108.7655 C389.278,106.0945 388.59,104.0035 387.215,102.4895 C385.839,100.9775 383.972,100.2205 381.611,100.2205 Z" id="Fill-30" fill="#6C6E70" mask="url(#mask-2)"></path>
                <path d="M48.8151,55.6354 C47.1221,57.3474 44.7161,57.7134 43.4421,56.4534 C42.1681,55.1934 42.5071,52.7834 44.2001,51.0714 C45.8931,49.3594 48.2991,48.9934 49.5731,50.2534 C50.8481,51.5144 50.5081,53.9234 48.8151,55.6354 M33.8181,74.6764 C27.7631,77.6334 15.2881,74.4614 15.2881,74.4614 L15.2881,56.5004 C15.2881,56.5004 14.8391,46.2634 23.8501,47.7064 C29.7781,48.6554 29.1811,55.7804 29.1811,55.7804 C32.3661,53.0224 38.2371,53.6394 40.7721,57.4154 C45.7631,64.8544 39.7991,71.7564 33.8181,74.6764 M20.4861,36.6334 C22.1911,36.7564 23.4401,38.7144 23.2731,41.0054 C23.1071,43.2954 21.5891,45.0524 19.8841,44.9284 C18.1791,44.8054 16.9311,42.8474 17.0971,40.5574 C17.2641,38.2664 18.7811,36.5094 20.4861,36.6334 M27.6511,39.6744 C28.3601,37.4894 30.2541,36.1474 31.8801,36.6754 C33.5061,37.2044 34.2491,39.4034 33.5401,41.5874 C32.8311,43.7714 30.9371,45.1144 29.3111,44.5864 C27.6851,44.0584 26.9411,41.8594 27.6511,39.6744 M37.2001,44.1004 C38.4481,42.1724 40.6231,41.3624 42.0591,42.2914 C43.4941,43.2204 43.6451,45.5364 42.3971,47.4654 C41.1491,49.3934 38.9741,50.2024 37.5391,49.2734 C36.1041,48.3444 35.9521,46.0274 37.2001,44.1004 M49.9881,37.1414 C44.9071,31.5844 38.2191,28.8044 29.9251,28.8044 C24.6981,28.8044 19.7841,30.4224 15.1811,33.6564 L15.1811,29.9254 L0.0001,29.9254 L0.0001,117.3324 L15.3041,117.3324 L15.3041,85.7304 C19.8661,88.0104 24.4081,89.1524 28.9291,89.1524 C34.4871,89.1524 39.4631,87.8654 43.8601,85.2944 C48.2561,82.7234 51.6471,79.1354 54.0321,74.5314 C56.4171,69.9274 57.6101,64.7014 57.6101,58.8534 C57.6101,49.9374 55.0681,42.6994 49.9881,37.1414" id="Fill-31" fill="#404042" mask="url(#mask-2)"></path>
            </g>
        </g>
    </g>
</svg>