<?xml version="1.0" encoding="UTF-8"?>
<svg width="36px" height="40px" viewBox="0 0 36 40" version="1.1" xmlns="http://www.w3.org/2000/svg" xmlns:xlink="http://www.w3.org/1999/xlink">
    <!-- Generator: Sketch 48.2 (47327) - http://www.bohemiancoding.com/sketch -->
    <title>Logo/Icon</title>
    <desc>Created with Sketch.</desc>
    <defs></defs>
    <g id="Symbols" stroke="none" stroke-width="1" fill="none" fill-rule="evenodd">
        <g id="Logo/Icon" fill="#E62233">
            <path d="M33.8151,19.6354 C32.1221,21.3474 29.7161,21.7134 28.4421,20.4534 C27.1681,19.1934 27.5071,16.7834 29.2001,15.0714 C30.8931,13.3594 33.2991,12.9934 34.5731,14.2534 C35.8481,15.5144 35.5081,17.9234 33.8151,19.6354 Z M18.8181,38.6764 C12.7631,41.6334 0.2881,38.4614 0.2881,38.4614 L0.2881,20.5004 C0.2881,20.5004 -0.1609,10.2634 8.8501,11.7064 C14.7781,12.6554 14.1811,19.7804 14.1811,19.7804 C17.3661,17.0224 23.2371,17.6394 25.7721,21.4154 C30.7631,28.8544 24.7991,35.7564 18.8181,38.6764 Z M5.4861,0.6334 C7.1911,0.7564 8.4401,2.7144 8.2731,5.0054 C8.1071,7.2954 6.5891,9.0524 4.8841,8.9284 C3.1791,8.8054 1.9311,6.8474 2.0971,4.5574 C2.2641,2.2664 3.7811,0.5094 5.4861,0.6334 Z M12.6511,3.6744 C13.3601,1.4894 15.2541,0.1474 16.8801,0.6754 C18.5061,1.2044 19.2491,3.4034 18.5401,5.5874 C17.8311,7.7714 15.9371,9.1144 14.3111,8.5864 C12.6851,8.0584 11.9411,5.8594 12.6511,3.6744 Z M22.2001,8.1004 C23.4481,6.1724 25.6231,5.3624 27.0591,6.2914 C28.4941,7.2204 28.6451,9.5364 27.3971,11.4654 C26.1491,13.3934 23.9741,14.2024 22.5391,13.2734 C21.1041,12.3444 20.9521,10.0274 22.2001,8.1004 Z" id="Combined-Shape"></path>
        </g>
    </g>
</svg>