<?xml version="1.0" standalone="no"?>
<!DOCTYPE svg PUBLIC "-//W3C//DTD SVG 20010904//EN"
 "http://www.w3.org/TR/2001/REC-SVG-20010904/DTD/svg10.dtd">
<svg version="1.0" xmlns="http://www.w3.org/2000/svg"
 width="640.000000pt" height="640.000000pt" viewBox="0 0 640.000000 640.000000"
 preserveAspectRatio="xMidYMid meet">
<metadata>
Created by potrace 1.11, written by Peter Selinger 2001-2013
</metadata>
<g transform="translate(0.000000,640.000000) scale(0.100000,-0.100000)"
fill="#000000" stroke="none">
<path d="M2800 6295 c-200 -54 -368 -230 -451 -474 -11 -31 -22 -69 -25 -86
-3 -16 -9 -46 -13 -66 -13 -56 -5 -237 13 -303 8 -32 29 -86 46 -120 32 -65
107 -156 128 -156 6 0 12 -4 12 -8 0 -11 71 -46 123 -62 36 -11 172 -12 192
-1 6 3 15 6 20 7 6 1 24 7 40 14 17 6 30 10 30 9 0 -10 138 93 176 131 101
101 184 259 218 415 18 81 21 238 7 320 -12 71 -62 184 -103 236 -52 67 -142
130 -207 146 -44 11 -163 10 -206 -2z"/>
<path d="M1052 6279 c-30 -10 -70 -28 -90 -40 -47 -28 -162 -145 -182 -184 -8
-16 -18 -32 -22 -35 -8 -7 -45 -91 -63 -145 -14 -43 -22 -76 -32 -140 -8 -49
-7 -231 1 -265 3 -14 9 -41 12 -60 11 -56 55 -161 92 -219 138 -210 351 -275
554 -169 46 24 178 146 178 165 0 7 5 13 10 13 6 0 10 5 10 10 0 6 11 27 24
48 34 51 84 206 93 283 23 219 -10 384 -105 534 -67 104 -138 164 -247 206
-51 20 -173 19 -233 -2z"/>
<path d="M4360 5448 c-62 -11 -180 -50 -180 -60 0 -4 -5 -8 -11 -8 -37 0 -269
-206 -269 -238 0 -5 -7 -15 -16 -22 -8 -8 -35 -54 -60 -104 -125 -256 -112
-526 33 -678 45 -47 57 -56 111 -83 114 -57 262 -51 404 15 91 43 125 68 213
155 114 112 190 242 231 395 23 88 24 265 0 342 -20 66 -80 161 -127 201 -84
72 -212 105 -329 85z"/>
<path d="M1338 4544 c-2 -1 -21 -5 -43 -8 -60 -7 -204 -44 -238 -61 -17 -8
-34 -15 -38 -15 -14 0 -132 -72 -189 -116 -54 -41 -138 -127 -170 -174 -8 -12
-20 -28 -25 -34 -31 -33 -106 -178 -148 -286 -25 -64 -69 -221 -81 -290 -3
-19 -8 -44 -10 -55 -7 -37 -16 -110 -22 -180 -4 -38 -7 -747 -8 -1574 l0
-1505 29 -8 c17 -4 41 -10 55 -12 29 -6 58 -12 120 -26 25 -5 56 -12 70 -14
14 -3 72 -14 130 -26 58 -11 121 -23 140 -26 37 -6 53 -8 110 -18 54 -9 89
-15 139 -22 25 -3 57 -8 71 -10 14 -3 45 -7 70 -10 25 -2 59 -6 75 -8 70 -9
194 -23 275 -30 287 -28 851 -28 1012 -1 13 2 43 6 68 9 25 3 55 8 66 10 12 2
39 7 60 10 111 17 363 92 409 121 11 7 35 16 53 19 17 4 32 11 32 14 0 4 15
14 33 21 118 53 417 245 521 336 6 6 38 32 71 59 76 62 267 255 319 321 22 28
44 55 50 60 6 6 31 39 56 75 24 36 48 67 52 68 4 2 8 8 8 13 0 5 15 32 33 61
75 118 194 396 203 473 1 11 3 20 4 20 2 0 7 24 14 65 3 19 10 62 15 95 10 62
8 351 -3 395 -4 14 -9 43 -12 65 -7 42 -41 160 -69 235 -9 25 -18 50 -19 55
-5 27 -124 248 -174 324 -71 107 -213 252 -312 318 -63 42 -201 114 -275 144
-50 19 -144 45 -239 64 -123 26 -393 25 -506 -1 -14 -3 -36 -8 -50 -11 -113
-20 -315 -112 -417 -188 -32 -24 -59 -41 -60 -37 -1 4 -4 70 -7 147 -6 164
-21 261 -60 400 -19 71 -46 142 -73 193 -17 34 -29 62 -25 62 4 0 2 4 -3 8
-10 7 -65 88 -65 96 0 7 -62 76 -115 129 -90 89 -198 153 -335 199 -68 23
-112 33 -235 54 -41 7 -332 14 -337 8z"/>
<path d="M5445 4233 c-51 -10 -195 -57 -195 -65 0 -4 -3 -7 -7 -6 -10 2 -92
-40 -109 -56 -7 -6 -35 -27 -63 -46 -27 -19 -50 -38 -51 -41 0 -3 -23 -29 -51
-58 -84 -87 -166 -229 -194 -336 -5 -16 -10 -37 -13 -45 -3 -8 -6 -64 -7 -124
-3 -116 12 -185 56 -248 11 -14 19 -29 19 -33 0 -11 67 -73 108 -99 20 -14 65
-34 99 -45 85 -29 248 -24 343 9 198 69 347 186 462 362 94 142 130 257 130
405 0 51 -3 97 -7 103 -3 6 -9 23 -11 37 -13 69 -124 213 -178 229 -11 3 -28
13 -37 21 -9 7 -29 16 -45 19 -16 2 -36 7 -44 11 -17 7 -175 11 -205 6z"/>
</g>
</svg>
